<svg xmlns="http://www.w3.org/2000/svg" width="2000" height="2000" version="1.1" viewBox="0 0 2000 2000"><path fill="#00aeff" fill-rule="evenodd" stroke="none" d="M 743.277 722.750 C 743.578 1150.500, 743.578 1150.500, 745.730 1161.514 C 748.663 1176.518, 753.898 1192.025, 760.119 1204.137 C 775.384 1233.854, 797.527 1253.813, 835.500 1272.086 C 893.679 1300.081, 962.110 1311.031, 1040.500 1304.891 C 1112.444 1299.255, 1175.519 1273.982, 1213.500 1235.573 C 1219 1230.011, 1225.525 1222.663, 1228 1219.243 C 1243.521 1197.798, 1252.908 1172.792, 1255.946 1144.789 C 1256.667 1138.143, 1257 1002.537, 1257 715.039 L 1257 295 1147.010 295 L 1037.021 295 1036.760 719.750 C 1036.500 1144.500, 1036.500 1144.500, 1034.124 1149.757 C 1031.464 1155.641, 1026.615 1160.398, 1020.536 1163.087 C 1011.020 1167.297, 989.585 1167.323, 979.821 1163.138 C 970.229 1159.026, 965.676 1152.731, 964.022 1141.294 C 963.391 1136.933, 963.033 984.176, 963.020 714.750 L 963 295 852.989 295 L 742.977 295 743.277 722.750 M 1491.756 457.038 C 1491.615 543.408, 1491.806 614.846, 1492.180 615.788 C 1492.554 616.729, 1492.891 546.063, 1492.930 458.750 C 1492.968 371.438, 1492.778 300, 1492.506 300 C 1492.235 300, 1491.897 370.667, 1491.756 457.038 M 472.331 800.500 L 472.490 995.500 472.995 803 C 473.273 697.125, 473.201 609.375, 472.836 608 C 472.471 606.625, 472.243 693.250, 472.331 800.500 M 573.472 1187 C 573.472 1223.025, 573.597 1237.763, 573.750 1219.750 C 573.902 1201.737, 573.902 1172.263, 573.750 1154.250 C 573.597 1136.237, 573.472 1150.975, 573.472 1187 M 820.360 1346.468 C 797.718 1350.603, 779.979 1362.651, 766.570 1383 C 751.803 1405.410, 742.670 1438.288, 738.932 1482.500 C 737.448 1500.052, 737.442 1548.270, 738.921 1565.500 C 742.038 1601.792, 749.453 1633.951, 759.206 1653.469 C 768.739 1672.549, 783.321 1688.511, 798.107 1696.054 C 804.783 1699.460, 815.074 1702.710, 823.177 1703.970 C 828.507 1704.799, 878.663 1705.026, 1007.500 1704.804 C 1173.147 1704.518, 1184.885 1704.385, 1190.500 1702.734 C 1220.560 1693.896, 1241.005 1668.255, 1251.947 1625.668 C 1259.059 1597.987, 1262.145 1568.263, 1262.191 1527 C 1262.248 1475.543, 1256.775 1440.269, 1243.650 1407.500 C 1230.185 1373.885, 1212.335 1354.758, 1187.465 1347.297 C 1181.841 1345.610, 1171.391 1345.498, 1004.500 1345.336 C 862.720 1345.198, 826.079 1345.424, 820.360 1346.468 M 820 1500.020 C 815.377 1501.111, 811.351 1506.072, 809.932 1512.423 C 809.309 1515.215, 808.957 1522.225, 809.149 1528 C 809.428 1536.352, 809.956 1539.425, 811.729 1543.022 C 816.063 1551.815, 796.848 1551, 999.869 1551 C 1179.930 1551, 1179.930 1551, 1183.468 1547.894 C 1188.642 1543.351, 1190.313 1536.693, 1189.810 1522.635 C 1189.350 1509.810, 1187.265 1504.289, 1181.740 1501.271 C 1178.677 1499.597, 1168.781 1499.492, 1001 1499.347 C 903.375 1499.263, 821.925 1499.565, 820 1500.020 M 573.460 1547 C 573.460 1571.475, 573.590 1581.487, 573.749 1569.250 C 573.908 1557.013, 573.908 1536.988, 573.749 1524.750 C 573.590 1512.513, 573.460 1522.525, 573.460 1547"/><path fill="#fff" fill-rule="evenodd" stroke="none" d="M 405 645 L 405 995 438.500 995 L 472 995 472.120 800.250 C 472.194 679.974, 472.590 607.030, 473.155 609.500 C 473.658 611.700, 485.074 697.875, 498.524 801 C 511.974 904.125, 523.229 989.962, 523.535 991.750 C 524.091 995, 524.091 995, 553.545 995 C 569.745 995, 583.042 994.888, 583.093 994.750 C 583.145 994.612, 593.224 907.425, 605.492 801 L 627.798 607.500 627.899 801.250 L 628 995 666.500 995 L 705 995 705 644.992 L 705 294.984 647.275 295.242 L 589.550 295.500 577.874 419.500 C 571.453 487.700, 563.810 568.869, 560.891 599.874 C 557.972 630.880, 555.455 655.855, 555.298 655.374 C 555.142 654.894, 546.457 575.525, 535.999 479 C 525.541 382.475, 516.712 301.587, 516.379 299.250 C 515.773 295, 515.773 295, 460.386 295 L 405 295 405 645 M 1291 650 L 1291 1000 1340.500 1000 L 1390 1000 1390.071 815.250 L 1390.142 630.500 1429.869 815 L 1469.595 999.500 1530.297 999.758 L 1591 1000.015 1591 650.008 L 1591 300 1542 300 L 1493 300 1492.921 458.750 C 1492.875 552.196, 1492.478 616.472, 1491.957 615 C 1491.470 613.625, 1476.414 542.975, 1458.499 458 C 1440.585 373.025, 1425.688 302.712, 1425.396 301.750 C 1424.897 300.106, 1420.809 300, 1357.933 300 L 1291 300 1291 650 M 538 1012.099 C 465.490 1016.426, 422.394 1047.537, 409.429 1104.914 C 405.589 1121.908, 404.776 1138.877, 405.254 1192 C 405.685 1239.884, 405.723 1240.633, 408.248 1251 C 414.512 1276.722, 422.018 1290.115, 449.440 1324.500 C 463.475 1342.099, 488.510 1371.431, 513.453 1399.500 C 523.227 1410.500, 534.120 1423.100, 537.659 1427.500 C 558.830 1453.821, 570.516 1477.455, 573.037 1499.049 C 573.734 1505.015, 574.022 1524.540, 573.820 1552 C 573.464 1600.346, 573.554 1599.672, 566.676 1605.711 C 562.399 1609.466, 557.574 1610.987, 549.909 1610.994 C 538.790 1611.006, 530.909 1606.849, 527.168 1599 C 525.660 1595.835, 525.473 1587.585, 525.222 1512.750 L 524.945 1430 464.972 1430 L 405 1430 405.003 1510.750 C 405.005 1559.911, 405.423 1595.999, 406.071 1603 C 409.012 1634.796, 418.296 1656.478, 436.924 1675.055 C 454.462 1692.545, 477.934 1702.983, 512.500 1708.663 C 528.427 1711.280, 575.748 1711.288, 591.500 1708.676 C 627.201 1702.756, 649.864 1692.768, 668.789 1674.613 C 682.426 1661.532, 690.972 1647.836, 696.895 1629.575 C 704.521 1606.066, 705.203 1597.059, 704.779 1525.500 C 704.438 1467.864, 704.335 1465.076, 702.173 1454.735 C 699.533 1442.112, 694.261 1426.453, 689.397 1416.795 C 678.645 1395.446, 649.803 1358.984, 594.720 1297.108 C 582.741 1283.652, 569.574 1268.251, 565.459 1262.882 C 549.552 1242.130, 539.051 1221.912, 535.577 1205.345 C 533.731 1196.546, 530.638 1143.514, 531.474 1135 C 533.553 1113.816, 541.852 1104.072, 556.793 1105.271 C 566.081 1106.017, 571.413 1110.561, 573.071 1119.142 C 573.534 1121.539, 573.932 1152.412, 573.956 1187.750 L 574 1252 634.077 1252 L 694.154 1252 693.711 1182.250 C 693.333 1122.711, 693.026 1111.256, 691.614 1104 C 687.978 1085.323, 682.626 1071.217, 674.599 1059.155 C 666.458 1046.922, 648.874 1031.852, 636.500 1026.502 C 615.086 1017.245, 599.672 1013.708, 573.299 1012 C 557.044 1010.947, 557.318 1010.946, 538 1012.099 M 1429 1012.058 C 1383.008 1014.974, 1349.724 1026.942, 1326.823 1048.799 C 1317.102 1058.077, 1312.321 1064.288, 1306.552 1075.134 C 1298.362 1090.531, 1293.920 1106.672, 1292.001 1128 C 1291.194 1136.969, 1290.980 1206.460, 1291.241 1374 C 1291.641 1630.926, 1291.169 1611.745, 1297.604 1632.155 C 1311.033 1674.746, 1346.851 1699.909, 1406.500 1708.656 C 1421.929 1710.919, 1467.723 1711.231, 1478.500 1709.146 C 1499.140 1705.154, 1513.521 1700.414, 1529.255 1692.418 C 1560.589 1676.494, 1580.009 1655.587, 1587.294 1629.934 C 1590.768 1617.700, 1591 1610.803, 1591 1519.558 L 1591 1429 1528.500 1429 L 1466 1429 1465.998 1516.250 C 1465.997 1597.340, 1465.873 1603.742, 1464.248 1606.929 C 1461.320 1612.672, 1457.920 1614.443, 1449.054 1614.846 C 1438.431 1615.328, 1432.783 1612.942, 1429.992 1606.793 C 1428.078 1602.576, 1428.044 1598.203, 1428.022 1360.066 C 1428 1120.520, 1428.024 1117.583, 1429.979 1113.544 C 1432.745 1107.830, 1436.791 1105.730, 1445.954 1105.251 C 1452.372 1104.916, 1454.173 1105.204, 1458 1107.179 C 1466.453 1111.540, 1465.997 1106.967, 1465.998 1187.250 L 1466 1258 1528.500 1258 L 1591 1258 1591 1189.534 C 1591 1133.233, 1590.725 1119.100, 1589.455 1109.990 C 1582.380 1059.267, 1554.459 1029.159, 1503.207 1016.987 C 1484.343 1012.507, 1453.860 1010.482, 1429 1012.058"/></svg>