<svg xmlns="http://www.w3.org/2000/svg" width="2000" height="2000" version="1.1" viewBox="0 0 2000 2000"><path fill="#00aeff" fill-rule="evenodd" stroke="none" d="M 743.277 722.250 L 743.580 1149.500 745.801 1160.923 C 748.360 1174.082, 754.412 1192.899, 759.054 1202.133 C 773.114 1230.096, 793.871 1250.255, 826.169 1267.316 C 865.610 1288.149, 909.607 1300.287, 963 1305.064 C 979.039 1306.499, 1021.707 1306.490, 1038.500 1305.048 C 1113.981 1298.566, 1174.637 1274.448, 1213.582 1235.432 C 1238.052 1210.918, 1251.858 1181.046, 1255.937 1143.789 C 1256.671 1137.087, 1257 1004.091, 1257 714.539 L 1257 295 1147.008 295 L 1037.016 295 1036.753 719.750 C 1036.536 1070.834, 1036.259 1145.177, 1035.155 1148.405 C 1034.418 1150.563, 1031.511 1154.614, 1028.660 1157.459 C 1024.538 1161.572, 1022.293 1162.939, 1017.500 1164.255 C 1008.460 1166.736, 1000.364 1167.310, 991.629 1166.088 C 977.732 1164.143, 970.222 1159.352, 965.816 1149.618 L 963.500 1144.500 963.242 719.750 L 962.984 295 852.979 295 L 742.975 295 743.277 722.250 M 1491.756 457.596 C 1491.615 544.273, 1491.831 615.711, 1492.235 616.346 C 1492.639 616.981, 1492.976 546.063, 1492.985 458.750 C 1492.993 371.438, 1492.778 300, 1492.506 300 C 1492.235 300, 1491.897 370.918, 1491.756 457.596 M 472.331 800 L 472.490 995.500 472.995 802.500 C 473.273 696.350, 473.201 608.375, 472.836 607 C 472.471 605.625, 472.243 692.475, 472.331 800 M 1389 814.500 C 1389 916.708, 1389.223 1000.111, 1389.495 999.839 C 1390.152 999.181, 1390.168 629.834, 1389.510 629.177 C 1389.230 628.896, 1389 712.292, 1389 814.500 M 824.061 1346.076 C 773.632 1352.687, 745.777 1398.249, 738.916 1485.347 C 737.397 1504.628, 738.307 1564.015, 740.366 1580 C 745.406 1619.124, 753.483 1645.647, 766.620 1666.212 C 772.326 1675.145, 786.487 1689.319, 794.258 1693.877 C 802.010 1698.423, 811.353 1701.703, 821.691 1703.505 C 834.501 1705.739, 1172.872 1705.756, 1184.541 1703.523 C 1203.608 1699.875, 1217.917 1690.899, 1229.382 1675.394 C 1245.225 1653.968, 1254.036 1626.995, 1259.562 1583 C 1261.689 1566.071, 1262.634 1508.213, 1261.089 1489.500 C 1257.937 1451.300, 1250.865 1422.084, 1238.578 1396.500 C 1228.069 1374.617, 1215.388 1360.253, 1199.768 1352.537 C 1184.373 1344.933, 1201.661 1345.571, 1006 1345.392 C 909.475 1345.304, 827.602 1345.612, 824.061 1346.076 M 819.643 1500.023 C 813.344 1501.923, 810.447 1506.643, 808.942 1517.459 C 806.967 1531.664, 810.709 1546.247, 817.190 1549.598 C 819.486 1550.785, 847.400 1551, 999.546 1551 C 1200.321 1551, 1182.566 1551.675, 1186.950 1543.874 C 1191.216 1536.285, 1191.457 1515.622, 1187.376 1507.405 C 1186.344 1505.328, 1184.230 1502.700, 1182.677 1501.565 L 1179.854 1499.500 1001.177 1499.330 C 902.905 1499.237, 821.214 1499.549, 819.643 1500.023"/><path fill="#000" fill-rule="evenodd" stroke="none" d="M 405 645 L 405 995 438.500 995 L 472 995 472 799.833 C 472 692.492, 472.243 604.910, 472.540 605.207 C 472.918 605.585, 523.996 992.238, 524 994.750 C 524 994.888, 537.226 995, 553.392 995 L 582.783 995 583.300 992.750 C 583.584 991.513, 593.645 904.207, 605.658 798.738 L 627.500 606.975 627.753 800.988 L 628.005 995 666.503 995 L 705 995 705 645 L 705 295 647.545 295 L 590.091 295 589.547 298.250 C 588.960 301.756, 556 651.960, 556 654.688 C 556 655.593, 555.774 656.107, 555.497 655.830 C 555.119 655.452, 516 298.669, 516 295.601 C 516 295.270, 491.025 295, 460.500 295 L 405 295 405 645 M 1291 650 L 1291 1000 1340 1000 L 1389 1000 1389.068 814.250 C 1389.109 701.437, 1389.494 629.285, 1390.048 630.500 C 1390.550 631.600, 1408.530 714.400, 1430.004 814.500 C 1451.478 914.600, 1469.292 997.288, 1469.591 998.250 C 1470.101 999.891, 1473.886 1000, 1530.567 1000 L 1591 1000 1591 650 L 1591 300 1542 300 L 1493 300 1492.932 458.750 C 1492.892 552.745, 1492.501 616.684, 1491.972 615.500 C 1491.481 614.400, 1476.406 543.750, 1458.472 458.500 C 1440.537 373.250, 1425.639 302.712, 1425.364 301.750 C 1424.895 300.106, 1420.821 300, 1357.933 300 L 1291 300 1291 650 M 540.718 1012.078 C 496.272 1014.343, 463.831 1025.936, 440.915 1047.744 C 427.324 1060.677, 418.248 1075.412, 412.550 1093.796 C 405.925 1115.173, 404.671 1132.292, 405.269 1193.205 C 405.682 1235.208, 405.914 1240.334, 407.766 1248.500 C 410.155 1259.030, 415.049 1273.161, 419.063 1281.120 C 428.437 1299.705, 457.621 1336.339, 511.113 1396.667 C 535.890 1424.610, 542.823 1433.104, 551.439 1446.069 C 563.174 1463.727, 570.861 1481.738, 572.963 1496.500 C 573.512 1500.350, 573.969 1523.331, 573.980 1547.568 C 574.002 1595.448, 573.689 1598.674, 568.494 1604.241 C 564.436 1608.589, 560.115 1610.301, 552 1610.779 C 542.488 1611.338, 536.921 1609.827, 531.949 1605.335 C 524.792 1598.869, 525 1601.693, 525 1510.818 L 525 1430 465 1430 L 405 1430 405 1508.855 C 405 1589.846, 405.588 1606.652, 408.961 1622 C 418.596 1665.849, 447.694 1694.029, 494.603 1704.941 C 523.812 1711.736, 564.400 1712.900, 596 1707.849 C 647.956 1699.544, 682.828 1672.403, 696.890 1629.326 C 704.020 1607.487, 705.002 1595.526, 704.992 1530.644 C 704.982 1467.609, 704.114 1457.305, 697.015 1435.952 C 687.051 1405.981, 664.977 1376.068, 594.476 1297 C 571.125 1270.812, 563.980 1262.028, 555.430 1249 C 545.110 1233.275, 538.066 1217.695, 535.081 1203.988 C 533.547 1196.947, 530.729 1144.392, 531.422 1135.769 C 532.624 1120.816, 537.294 1110.931, 545.018 1106.991 C 549.635 1104.635, 558.468 1104.333, 563.329 1106.364 C 567.491 1108.103, 571.632 1113.014, 572.956 1117.781 C 573.618 1120.163, 573.991 1144.951, 573.994 1186.750 L 574 1252 634.087 1252 L 694.175 1252 693.678 1182.750 C 693.174 1112.434, 692.983 1108.766, 689.005 1092.780 C 682.888 1068.205, 667.491 1045.592, 648.701 1033.590 C 629.536 1021.348, 603.754 1013.797, 576.635 1012.481 C 570.511 1012.184, 563.250 1011.803, 560.500 1011.633 C 557.750 1011.464, 548.848 1011.664, 540.718 1012.078 M 1432.340 1012.065 C 1382.565 1014.484, 1346.213 1028.031, 1322.842 1052.871 C 1304.362 1072.512, 1294.671 1096.585, 1292.036 1129.395 C 1290.643 1146.735, 1290.626 1586.083, 1292.017 1601.800 C 1297.564 1664.468, 1333.592 1697.798, 1407.500 1708.637 C 1416.444 1709.949, 1426.121 1710.410, 1445.500 1710.449 C 1468.859 1710.495, 1472.663 1710.264, 1482.954 1708.181 C 1511.779 1702.344, 1537.352 1690.595, 1557.500 1673.931 C 1573.033 1661.084, 1582.659 1646.179, 1588.244 1626.329 C 1590.432 1618.551, 1590.449 1617.886, 1590.766 1523.750 L 1591.085 1429 1528.543 1429 L 1466 1429 1466 1516.852 L 1466 1604.704 1463.747 1608.048 C 1460.118 1613.433, 1456.253 1615.111, 1447.481 1615.111 C 1438.887 1615.111, 1434.014 1613.239, 1430.557 1608.608 L 1428.500 1605.853 1428.244 1361.835 C 1427.992 1121.240, 1428.016 1117.753, 1429.951 1113.378 C 1432.551 1107.499, 1437.692 1105.052, 1447.500 1105.024 C 1455.456 1105, 1460.153 1106.858, 1463.429 1111.323 C 1465.467 1114.100, 1465.508 1115.300, 1466 1185.823 L 1466.500 1257.500 1528.750 1257.758 L 1591 1258.015 1591 1192.114 C 1591 1153.123, 1590.569 1121.983, 1589.946 1115.856 C 1587.827 1095.052, 1583.124 1079.528, 1574.385 1064.500 C 1568.438 1054.273, 1553.483 1039.212, 1543 1032.893 C 1523.136 1020.919, 1497.395 1013.755, 1469.723 1012.498 C 1463 1012.193, 1455.250 1011.804, 1452.500 1011.636 C 1449.750 1011.467, 1440.678 1011.660, 1432.340 1012.065"/></svg>